# xmcd CD database file
# Copyright (C) 1993-1998 Ti Kan
#
# Track frame offsets:
#	150
#	13990
#	27835
#	43220
#	61385
#	75480
#	89837
#	104300
#	119330
#	131755
#	146857
#	161115
#	173345
#	185160
#	195805
#
# Disc length: 2876 seconds
#
# Revision: 1
# Processed by: cddbd v1.4b41PL1 Copyright (c) Steve Scherf et al.
# Submitted via: CDValet v3.31 - Copyright (c) 1997 Greg Leichner
#
DISCID=d20b3a0f
DTITLE=Various Artist - Chitarra Romantica Italia
DYEAR=1900
DGENRE=
TTITLE0=Non Ho Leta Per Amarti
TTITLE1=Ti Amo
TTITLE2=Tornero
TTITLE3=Tu
TTITLE4=Volare
TTITLE5=Paola
TTITLE6=Per Amor Te
TTITLE7=Una Ragazza
TTITLE8=Santa Lucia
TTITLE9=Te Voglio Tanto Bene
TTITLE10=Una Notte Senza Luna
TTITLE11=O Sole Mio
TTITLE12=Ciao Ciao Bambina
TTITLE13=Una Lacrima Sul Viso
TTITLE14=I Maschi
EXTD=Schlapa
EXTT0=
EXTT1=
EXTT2=
EXTT3=
EXTT4=
EXTT5=
EXTT6=
EXTT7=
EXTT8=
EXTT9=
EXTT10=
EXTT11=
EXTT12=
EXTT13=
EXTT14=
PLAYORDER=
